<?xml version="1.0" encoding="utf-8"?>
<!-- Generator: Adobe Illustrator 19.0.0, SVG Export Plug-In . SVG Version: 6.00 Build 0)  -->
<svg version="1.1" xmlns="http://www.w3.org/2000/svg" xmlns:xlink="http://www.w3.org/1999/xlink" x="0px" y="0px"
	 viewBox="-429 231 300 100" style="enable-background:new -429 231 300 100;" xml:space="preserve">
<style type="text/css">
	.st0{fill:#FFFFFF;}
</style>
<g id="Layer_2">
</g>
<g id="Layer_1">
	<g id="XMLID_1_">
		<path id="XMLID_2_" class="st0" d="M-354.4,278.8c0,14.7-11.6,26.4-26.3,26.4c-14.7,0-26.6-11.8-26.6-26.3
			c0-14.7,12-26.8,26.7-26.8C-366.2,252.1-354.4,264-354.4,278.8z M-361.3,288.3c0.1-0.1,0.1-0.1,0.1-0.1c0-0.1,0.1-0.2,0.1-0.2
			c1.9-4.1,2.5-8.3,1.8-12.7c-1.7-10.3-10.6-18.1-21-18.4c-6.7-0.1-12.4,2.3-16.8,7.2c-7.5,8.3-7.5,20.6-0.1,29.1
			c0.2,0.2,0.5,0.3,0.7,0.4c2,0,4,0,6.1,0c0.2,0,0.3,0,0.6,0c0-5.4,0-10.6,0-16c0.2,0,0.3,0,0.4,0c7.2,0,14.3,0,21.5,0
			c0.4,0,0.6,0.2,0.7,0.5c1.9,3.3,3.7,6.6,5.6,9.9C-361.5,287.9-361.4,288.1-361.3,288.3z"/>
	</g>
	<g>
		<path class="st0" d="M-321.9,265.7h5.9c3.6,0,6.4,1,6.4,4.3c0,1.5-0.9,3.2-2.9,3.8v0.1c2.5,0.5,3.8,1.8,3.8,4.1
			c0,3.5-3,5.1-6.8,5.1h-6.4V265.7z M-316.1,272.7c1.9,0,2.8-0.8,2.8-2.1s-0.9-1.8-2.7-1.8h-1.9v4H-316.1z M-315.7,280
			c2.1,0,3.2-0.8,3.2-2.4c0-1.5-1.1-2.2-3.2-2.2h-2.2v4.5H-315.7z"/>
		<path class="st0" d="M-304.5,265.7h3.9v14h6.8v3.3h-10.8V265.7z"/>
		<path class="st0" d="M-281.4,278.9h-5.3l-1.1,4.1h-4l5.5-17.3h4.7l5.5,17.3h-4.1L-281.4,278.9z M-282.2,275.8l-0.4-1.6
			c-0.5-1.7-0.9-3.8-1.4-5.6h-0.1c-0.4,1.8-0.9,3.9-1.4,5.6l-0.4,1.6H-282.2z"/>
		<path class="st0" d="M-265.9,265.3c2.2,0,4,1.1,5.1,2.3l-2.2,2.4c-0.9-0.8-1.7-1.3-2.9-1.3c-2.4,0-4.3,2.1-4.3,5.6
			c0,3.6,1.7,5.6,4.2,5.6c1.4,0,2.4-0.6,3.3-1.5l2.2,2.4c-1.4,1.7-3.4,2.6-5.5,2.6c-4.5,0-8.2-3.1-8.2-8.9
			C-274.1,268.7-270.3,265.3-265.9,265.3z"/>
		<path class="st0" d="M-256.6,265.7h3.9v7.1h0.1l5.2-7.1h4.3l-5.2,6.9l6.2,10.4h-4.3l-4.2-7.3l-2,2.7v4.7h-3.9V265.7z"/>
		<path class="st0" d="M-232.1,265.7h4.1l2.9,7.8l1,3h0.1l1-3l2.8-7.8h4.1V283h-3.7v-6.4c0-1.7,0.3-4.2,0.5-5.9h-0.1l-1.4,4
			l-2.7,6.7h-1.6l-2.7-6.7l-1.4-4h-0.1c0.2,1.7,0.5,4.2,0.5,5.9v6.4h-3.6V265.7z"/>
		<path class="st0" d="M-210.5,265.7h10.9v3.3h-6.9v3.5h5.9v3.3h-5.9v4h7.2v3.3h-11.1V265.7z"/>
		<path class="st0" d="M-193.5,278.1c1.2,1.1,2.8,1.8,4.3,1.8c1.6,0,2.4-0.6,2.4-1.7c0-1.1-1-1.4-2.5-2.1l-2.2-1
			c-1.8-0.7-3.5-2.2-3.5-4.7c0-2.9,2.6-5.2,6.2-5.2c2,0,4.1,0.8,5.6,2.3l-2,2.5c-1.1-0.9-2.2-1.4-3.6-1.4c-1.3,0-2.2,0.6-2.2,1.6
			c0,1.1,1.1,1.4,2.7,2l2.2,0.9c2.1,0.9,3.4,2.3,3.4,4.7c0,2.9-2.4,5.4-6.5,5.4c-2.3,0-4.7-0.9-6.4-2.5L-193.5,278.1z"/>
		<path class="st0" d="M-170.4,278.9h-5.3l-1.1,4.1h-4l5.5-17.3h4.7l5.5,17.3h-4.1L-170.4,278.9z M-171.2,275.8l-0.4-1.6
			c-0.5-1.7-0.9-3.8-1.4-5.6h-0.1c-0.4,1.8-0.9,3.9-1.4,5.6l-0.4,1.6H-171.2z"/>
		<path class="st0" d="M-316.4,303.4l-2.4-4.4h-1.7v4.4h-2v-11.1h3.7c2.3,0,4.1,0.8,4.1,3.3c0,1.7-0.9,2.7-2.2,3.2l2.7,4.6H-316.4z
			 M-320.5,297.5h1.6c1.5,0,2.3-0.6,2.3-1.9c0-1.3-0.8-1.7-2.3-1.7h-1.6V297.5z"/>
		<path class="st0" d="M-311.5,292.3h6.7v1.7h-4.7v2.8h4v1.7h-4v3.3h4.9v1.7h-6.9V292.3z"/>
		<path class="st0" d="M-301.1,300.6c0.8,0.7,1.9,1.3,2.9,1.3c1.2,0,1.9-0.6,1.9-1.4c0-0.9-0.7-1.2-1.7-1.6l-1.5-0.7
			c-1.1-0.5-2.2-1.3-2.2-3c0-1.8,1.6-3.1,3.7-3.1c1.3,0,2.6,0.5,3.4,1.4l-1,1.3c-0.7-0.6-1.5-1-2.4-1c-1.1,0-1.7,0.5-1.7,1.3
			c0,0.9,0.8,1.2,1.8,1.6l1.5,0.6c1.3,0.6,2.2,1.4,2.2,3c0,1.8-1.5,3.3-4,3.3c-1.5,0-2.9-0.6-4-1.6L-301.1,300.6z"/>
		<path class="st0" d="M-291.4,292.3h6.7v1.7h-4.7v2.8h4v1.7h-4v3.3h4.9v1.7h-6.9V292.3z"/>
		<path class="st0" d="M-276.3,300.4h-3.7l-0.9,3h-2l3.6-11.1h2.3l3.6,11.1h-2.1L-276.3,300.4z M-276.7,298.9l-0.4-1.4
			c-0.3-1.2-0.7-2.4-1-3.7h-0.1c-0.3,1.2-0.6,2.5-1,3.7l-0.4,1.4H-276.7z"/>
		<path class="st0" d="M-265.1,303.4l-2.4-4.4h-1.7v4.4h-2v-11.1h3.7c2.3,0,4.1,0.8,4.1,3.3c0,1.7-0.9,2.7-2.2,3.2l2.7,4.6H-265.1z
			 M-269.2,297.5h1.6c1.5,0,2.3-0.6,2.3-1.9c0-1.3-0.8-1.7-2.3-1.7h-1.6V297.5z"/>
		<path class="st0" d="M-255.6,292.1c1.4,0,2.5,0.7,3.2,1.4l-1.1,1.2c-0.6-0.6-1.2-0.9-2.1-0.9c-1.8,0-3.1,1.5-3.1,4
			c0,2.5,1.2,4.1,3.1,4.1c1,0,1.7-0.4,2.3-1.1l1.1,1.2c-0.9,1-2.1,1.6-3.5,1.6c-2.8,0-5-2-5-5.7
			C-260.7,294.2-258.4,292.1-255.6,292.1z"/>
		<path class="st0" d="M-249.5,292.3h2v4.5h4.5v-4.5h2v11.1h-2v-4.9h-4.5v4.9h-2V292.3z"/>
		<path class="st0" d="M-233,292.3h6.7v1.7h-4.7v3.1h4v1.7h-4v4.6h-2V292.3z"/>
		<path class="st0" d="M-219,300.4h-3.7l-0.9,3h-2l3.6-11.1h2.3l3.6,11.1h-2.1L-219,300.4z M-219.5,298.9l-0.4-1.4
			c-0.3-1.2-0.7-2.4-1-3.7h-0.1c-0.3,1.2-0.6,2.5-1,3.7l-0.4,1.4H-219.5z"/>
		<path class="st0" d="M-209.5,292.1c1.4,0,2.5,0.7,3.2,1.4l-1.1,1.2c-0.6-0.6-1.2-0.9-2.1-0.9c-1.8,0-3.1,1.5-3.1,4
			c0,2.5,1.2,4.1,3.1,4.1c1,0,1.7-0.4,2.3-1.1l1.1,1.2c-0.9,1-2.1,1.6-3.5,1.6c-2.8,0-5-2-5-5.7
			C-214.6,294.2-212.3,292.1-209.5,292.1z"/>
		<path class="st0" d="M-203.4,292.3h2v11.1h-2V292.3z"/>
		<path class="st0" d="M-197.8,292.3h2v9.5h4.6v1.7h-6.6V292.3z"/>
		<path class="st0" d="M-188.4,292.3h2v11.1h-2V292.3z"/>
		<path class="st0" d="M-180.5,294h-3.2v-1.7h8.4v1.7h-3.2v9.5h-2V294z"/>
		<path class="st0" d="M-171.1,299.3l-3.3-7h2.1l1.2,2.8c0.3,0.8,0.6,1.6,1,2.4h0.1c0.4-0.8,0.7-1.6,1-2.4l1.2-2.8h2.1l-3.3,7v4.1
			h-2V299.3z"/>
	</g>
</g>
</svg>
